<?xml version="1.0" encoding="UTF-8" standalone="no"?>
<!-- Created with Inkscape (http://www.inkscape.org/) -->

<svg
   xmlns:dc="http://purl.org/dc/elements/1.1/"
   xmlns:cc="http://creativecommons.org/ns#"
   xmlns:rdf="http://www.w3.org/1999/02/22-rdf-syntax-ns#"
   xmlns:svg="http://www.w3.org/2000/svg"
   xmlns="http://www.w3.org/2000/svg"
   xmlns:sodipodi="http://sodipodi.sourceforge.net/DTD/sodipodi-0.dtd"
   xmlns:inkscape="http://www.inkscape.org/namespaces/inkscape"
   width="3155"
   height="1555"
   viewBox="0 0 834.7604 411.42709"
   version="1.1"
   id="svg8"
   inkscape:version="0.92.4 (5da689c313, 2019-01-14)"
   sodipodi:docname="apollo.svg">
  <defs
     id="defs2" />
  <sodipodi:namedview
     id="base"
     pagecolor="#ffffff"
     bordercolor="#666666"
     borderopacity="1.0"
     inkscape:pageopacity="0.0"
     inkscape:pageshadow="2"
     inkscape:zoom="0.35"
     inkscape:cx="1536.632"
     inkscape:cy="737.14636"
     inkscape:document-units="mm"
     inkscape:current-layer="g4661"
     showgrid="false"
     units="px"
     inkscape:window-width="1920"
     inkscape:window-height="991"
     inkscape:window-x="-9"
     inkscape:window-y="-9"
     inkscape:window-maximized="1" />
  <metadata
     id="metadata5">
    <rdf:RDF>
      <cc:Work
         rdf:about="">
        <dc:format>image/svg+xml</dc:format>
        <dc:type
           rdf:resource="http://purl.org/dc/dcmitype/StillImage" />
        <dc:title></dc:title>
      </cc:Work>
    </rdf:RDF>
  </metadata>
  <g
     inkscape:label="Layer 1"
     inkscape:groupmode="layer"
     id="layer1"
     transform="translate(0,114.4271)">
    <g
       id="g4742"
       transform="matrix(0.26458333,0,0,0.26458333,124.27818,31.206862)">
      <g
         id="g4661"
         transform="matrix(2.0714244,0,0,2.0714244,-437.14343,-325.71429)">
	
	
	
	
	
	
	
	
	
	
	
	
	
	
	
	
	
	
	
	
	
	
	
	
	
	<g
   id="g4770">
  <path
     inkscape:connector-curvature="0"
     style="fill:none"
     d="m 279.175,200.037 c 0.015,0.029 0.024,0.061 0.038,0.091 0.029,-0.048 0.021,-0.08 -0.038,-0.091 z"
     id="path4609" />
  <path
     inkscape:connector-curvature="0"
     style="fill:#ff4f19"
     d="m 316.305,136.002 c 2.801,-4.831 6.827,-8.862 11.653,-11.671 C 326.158,39.954 262.719,2.628 259.978,1.06 258.743,0.354 257.372,0 256.001,0 v 136.002 z"
     id="path4611" />
  <path
     inkscape:connector-curvature="0"
     style="fill:#e5001e"
     d="M 195.696,136.002 H 256 V 0 c -1.371,0 -2.742,0.354 -3.977,1.061 -2.742,1.567 -66.18,38.894 -67.98,123.271 4.827,2.808 8.852,6.839 11.653,11.67 z"
     id="path4613" />
  <path
     inkscape:connector-curvature="0"
     style="fill:#5c546a"
     d="m 256.001,152.002 v -16 h -60.304 c 2.732,4.71 4.304,10.173 4.304,16 v 16 92.708 c 0.138,-0.141 0.267,-0.287 0.406,-0.426 l 15.594,-15.594 v -52.688 c 0,-22.055 17.945,-40 40,-40 z"
     id="path4615" />
  <path
     inkscape:connector-curvature="0"
     style="fill:#888693"
     d="m 344.001,340.673 c 0.135,0.138 0.262,0.282 0.398,0.419 l 31.195,31.191 c 0.139,0.139 0.269,0.286 0.406,0.426 V 168.002 h -32 v 172.671 z"
     id="path4617" />
  <path
     inkscape:connector-curvature="0"
     style="fill:#b6b8be"
     d="m 376.001,168.002 v -16 c 0,-17.645 -14.352,-32 -32,-32 v 48 z"
     id="path4619" />
  <path
     inkscape:connector-curvature="0"
     style="fill:#888693"
     d="m 168.001,168.002 v 172.671 c 10.313,-10.53 16,-24.415 16,-39.179 v -1.609 c 0,-14.768 5.685,-28.65 16,-39.175 v -92.708 z"
     id="path4621" />
  <path
     inkscape:connector-curvature="0"
     style="fill:#5c546a"
     d="m 167.602,341.092 c 0.137,-0.137 0.263,-0.281 0.398,-0.419 V 168.002 H 136 V 372.71 c 0.138,-0.141 0.267,-0.287 0.406,-0.426 z"
     id="path4623" />
  <path
     inkscape:connector-curvature="0"
     style="fill:#5c546a"
     d="m 312.001,168.002 v 92.708 c 10.315,10.525 16,24.407 16,39.175 v 1.609 c 0,14.764 5.688,28.649 16,39.179 V 168.002 Z"
     id="path4625" />
  <path
     inkscape:connector-curvature="0"
     style="fill:#b6b8be"
     d="m 200.001,168.002 v -16 c 0,-5.827 -1.573,-11.29 -4.304,-16 -2.801,-4.831 -6.827,-8.862 -11.653,-11.671 -4.72,-2.747 -10.198,-4.329 -16.043,-4.329 v 48 z"
     id="path4627" />
  <path
     inkscape:connector-curvature="0"
     style="fill:#5c546a"
     d="m 144.241,489.941 c 0.89,3.562 4.09,6.06 7.761,6.06 h 31.996 c 3.671,0 6.871,-2.499 7.761,-6.06 l 6.484,-25.94 h -60.487 z"
     id="path4629" />
  <path
     inkscape:connector-curvature="0"
     style="fill:#5c546a"
     d="m 320.24,489.941 c 0.89,3.562 4.09,6.06 7.761,6.06 h 31.996 c 3.671,0 6.871,-2.499 7.761,-6.06 l 6.484,-25.94 h -60.487 z"
     id="path4631" />
  <path
     inkscape:connector-curvature="0"
     style="fill:#d5d9de"
     d="m 208.022,416.002 c 0.32,-4.168 3.796,-7.387 7.976,-7.387 H 216 V 244.689 l -15.594,15.594 c -0.139,0.139 -0.269,0.286 -0.406,0.426 -10.315,10.525 -16,24.407 -16,39.175 v 1.609 c 0,14.764 -5.688,28.649 -16,39.179 -0.135,0.138 -0.262,0.282 -0.398,0.419 l -31.195,31.191 c -0.139,0.139 -0.269,0.286 -0.406,0.426 -10.315,10.525 -16,24.407 -16,39.175 V 424 h 87.289 z"
     id="path4633" />
  <path
     inkscape:connector-curvature="0"
     style="fill:#ff4f19"
     d="m 120.001,424.002 v 32 c 0,4.417 3.578,8 8,8 h 9.757 60.487 5.385 l 3.661,-40 z"
     id="path4635" />
  <path
     inkscape:connector-curvature="0"
     style="fill:#d5d9de"
     d="m 376.001,372.709 c -0.138,-0.141 -0.267,-0.287 -0.406,-0.426 L 344.4,341.092 c -0.137,-0.137 -0.263,-0.281 -0.398,-0.419 -10.313,-10.53 -16,-24.415 -16,-39.179 v -1.609 c 0,-14.768 -5.685,-28.65 -16,-39.175 -0.138,-0.141 -0.267,-0.287 -0.406,-0.426 L 296.002,244.69 v 163.926 h 0.002 c 4.18,0 7.656,3.218 7.977,7.387 l 0.732,8 h 87.289 v -12.117 c -0.001,-14.769 -5.686,-28.652 -16.001,-39.177 z"
     id="path4637" />
  <path
     inkscape:connector-curvature="0"
     style="fill:#ff4f19"
     d="m 308.373,464.001 h 5.384 60.487 9.758 c 4.422,0 8,-3.582 8,-8 v -32 h -87.289 z"
     id="path4639" />
  <path
     inkscape:connector-curvature="0"
     style="fill:#e3e6e9"
     d="m 256.001,152.002 c -22.055,0 -40,17.945 -40,40 v 52.688 163.926 h 16 V 248.002 203.78 c 0,-0.02 0,-0.039 0,-0.058 -0.022,-1.284 0.265,-2.549 0.826,-3.686 0.792,-1.607 2.126,-2.96 3.885,-3.754 12.609,-5.68 25.969,-5.68 38.578,0 1.759,0.794 3.093,2.146 3.885,3.754 0.059,0.011 0.067,0.043 0.038,0.091 0.532,1.114 0.809,2.344 0.787,3.595 0,0.019 0,0.038 0,0.058 v 44.222 160.613 h 16 V 244.689 192.001 c 10e-4,-22.054 -17.945,-39.999 -39.999,-39.999 z"
     id="path4641" />
  <path
     inkscape:connector-curvature="0"
     style="fill:#d5d9de"
     d="m 280.001,203.78 c -0.025,1.033 -0.252,2.079 -0.703,3.081 -1.336,2.961 -4.25,4.719 -7.305,4.719 -1.094,0 -2.211,-0.23 -3.281,-0.711 -8.438,-3.805 -16.984,-3.805 -25.422,0 -4.07,1.809 -8.773,0.012 -10.586,-4.008 -0.451,-1.002 -0.678,-2.048 -0.703,-3.081 v 44.222 160.613 h 16 v -40.613 c 0,-4.418 3.582,-8 8,-8 4.418,0 8,3.582 8,8 v 40.613 h 16 V 248.002 Z"
     id="path4643" />
  <path
     inkscape:connector-curvature="0"
     style="fill:#b6b8be"
     d="m 303.98,416.002 c -0.321,-4.168 -3.796,-7.387 -7.977,-7.387 h -0.002 -16 -16 v 63.386 h 45.104 l -0.732,-8 -3.661,-40 z"
     id="path4645" />
  <path
     inkscape:connector-curvature="0"
     style="fill:#888693"
     d="m 248.001,408.615 h -16 -16 -0.002 c -4.18,0 -7.656,3.218 -7.976,7.387 l -0.732,8 -3.661,40 -0.732,8 h 45.104 v -63.387 z"
     id="path4647" />
  <path
     inkscape:connector-curvature="0"
     style="fill:#5c546a"
     d="m 243.29,210.869 c 8.438,-3.805 16.984,-3.805 25.422,0 1.07,0.48 2.188,0.711 3.281,0.711 3.055,0 5.969,-1.758 7.305,-4.719 0.451,-1.002 0.678,-2.048 0.703,-3.081 0,-0.02 0,-0.039 0,-0.058 0.022,-1.251 -0.255,-2.481 -0.787,-3.595 -0.014,-0.03 -0.024,-0.062 -0.038,-0.091 -0.792,-1.607 -2.126,-2.96 -3.885,-3.754 -12.609,-5.68 -25.969,-5.68 -38.578,0 -1.759,0.794 -3.093,2.146 -3.885,3.754 -0.56,1.137 -0.848,2.401 -0.826,3.686 0,0.019 0,0.038 0,0.058 0.025,1.033 0.252,2.079 0.703,3.081 1.811,4.02 6.514,5.817 10.585,4.008 z"
     id="path4649" />
  <path
     inkscape:connector-curvature="0"
     style="fill:#888693"
     d="m 316.305,136.002 h -60.304 v 16 c 22.055,0 40,17.945 40,40 v 52.688 l 15.594,15.594 c 0.139,0.139 0.269,0.286 0.406,0.426 v -92.708 h 32 v -48 c -5.845,0 -11.323,1.582 -16.043,4.329 -4.826,2.809 -8.852,6.84 -11.653,11.671 z"
     id="path4651" />
  <path
     inkscape:connector-curvature="0"
     style="fill:#888693"
     d="m 168.001,120.002 c -17.648,0 -32,14.355 -32,32 v 16 h 32 z"
     id="path4653" />
  <path
     inkscape:connector-curvature="0"
     style="fill:#888693"
     d="m 264.001,480.001 c 0,4.418 -3.582,8 -8,8 v 24 h 48 c 2.227,0 4.359,-0.93 5.867,-2.563 1.516,-1.637 2.281,-3.828 2.109,-6.051 L 309.104,472 v 0 H 264 v 8.001 z"
     id="path4655" />
  <path
     inkscape:connector-curvature="0"
     style="fill:#5c546a"
     d="m 248.001,480.001 v -8 h -45.104 v 0 l -2.873,31.387 c -0.172,2.223 0.594,4.414 2.109,6.051 1.508,1.633 3.641,2.563 5.867,2.563 h 48 v -24 c -4.418,-0.001 -7.999,-3.582 -7.999,-8.001 z"
     id="path4657" />
  <path
     inkscape:connector-curvature="0"
     style="fill:#e5001e"
     d="m 256.001,360.002 c -4.418,0 -8,3.582 -8,8 v 40.613 63.386 8 c 0,4.418 3.582,8 8,8 4.418,0 8,-3.582 8,-8 v -8 -63.386 -40.613 c 0,-4.419 -3.582,-8 -8,-8 z"
     id="path4659" />
</g>

<text
   xml:space="preserve"
   style="font-style:normal;font-weight:normal;font-size:19.31038475px;line-height:1.25;font-family:sans-serif;letter-spacing:0px;word-spacing:0px;fill:#808080;fill-opacity:1;stroke:none;stroke-width:0.48275959;"
   x="524.96759"
   y="340.13913"
   id="text4774"><tspan
     sodipodi:role="line"
     id="tspan4772"
     x="524.96759"
     y="340.13913"
     style="font-style:italic;font-variant:normal;font-weight:normal;font-stretch:normal;font-size:329.56387329px;font-family:'Source Sans Pro';-inkscape-font-specification:'Source Sans Pro Italic';stroke-width:0.48275959;fill:#808080;">Apollo</tspan></text>
<text
   id="text4788"
   y="459.5618"
   x="584.62256"
   style="font-style:normal;font-weight:normal;font-size:2.91740847px;line-height:1.25;font-family:sans-serif;letter-spacing:0px;word-spacing:0px;fill:#808080;fill-opacity:1;stroke:none;stroke-width:0.07293521"
   xml:space="preserve"><tspan
     style="font-style:italic;font-variant:normal;font-weight:normal;font-stretch:normal;font-size:49.79043198px;font-family:'Source Sans Pro';-inkscape-font-specification:'Source Sans Pro Italic';fill:#808080;stroke-width:0.07293521"
     y="459.5618"
     x="584.62256"
     id="tspan4786"
     sodipodi:role="line">Distributed deep health check system</tspan></text>
</g>
      <g
         id="g4663">
</g>
      <g
         id="g4665">
</g>
      <g
         id="g4667">
</g>
      <g
         id="g4669">
</g>
      <g
         id="g4671">
</g>
      <g
         id="g4673">
</g>
      <g
         id="g4675">
</g>
      <g
         id="g4677">
</g>
      <g
         id="g4679">
</g>
      <g
         id="g4681">
</g>
      <g
         id="g4683">
</g>
      <g
         id="g4685">
</g>
      <g
         id="g4687">
</g>
      <g
         id="g4689">
</g>
      <g
         id="g4691">
</g>
    </g>
  </g>
</svg>
